<?xml version="1.0" encoding="utf-8"?>
<!-- Generator: Adobe Illustrator 16.0.4, SVG Export Plug-In . SVG Version: 6.00 Build 0)  -->
<!DOCTYPE svg PUBLIC "-//W3C//DTD SVG 1.1//EN" "http://www.w3.org/Graphics/SVG/1.1/DTD/svg11.dtd">
<svg version="1.1" id="Layer_1" xmlns="http://www.w3.org/2000/svg" xmlns:xlink="http://www.w3.org/1999/xlink" x="0px" y="0px"
	 width="500px" height="200px" viewBox="0 0 500 200" enable-background="new 0 0 500 200" xml:space="preserve">
<g>
	<path d="M328.636,40.321c4.039,4.775,13.227,4.407,18.368,8.081c-7.348,1.837-16.531,1.837-22.777,4.41
		C325.697,48.401,327.164,44.36,328.636,40.321z"/>
	<path d="M277.204,56.485c-2.207,9.917-6.612,21.306-9.185,32.33c13.959,0.365,28.651-2.57,43.35-3.673
		c1.836-2.572,2.938-6.246,4.039-9.554c2.938,4.042,4.775,11.757,2.206,17.632c-22.042-0.365-37.472,17.638-59.148,17.638
		c-9.55,0-17.633-5.51-13.224-16.165C251.488,79.26,267.648,68.607,277.204,56.485z"/>
	<path d="M497.625,24.155c0.366,2.205-1.837,4.042-2.938,5.878c-10.29,13.226-22.045,28.288-35.639,38.206
		c1.104,5.145,0.366,12.124-1.471,15.796c3.674,4.779,7.348,9.184,9.554,15.064c-2.939,15.795-9.92,27.918-20.574,35.635
		c-10.649,7.713-24.979,10.649-41.513,14.694c-31.592,7.349-83.759,14.322-107.271-4.409
		c-25.346,15.062-76.778,16.896-100.657-0.734c-16.899,21.307-83.391,19.469-73.473-22.777
		c-12.49,9.184-30.491,22.412-48.125,29.389c-20.206,8.449-58.412,7.351-54.738-21.307c0.368-3.307,1.837-5.51,3.674-8.447
		c-5.878-10.287-9.552-17.633-13.226-26.451C7.922,86.242,2.412,76.323,2.043,64.2C0.942,38.484,20.779,22.318,40.251,14.971
		c9.917-4.04,18.369-9.55,28.286-12.49C83.6-1.927,96.09,6.522,97.193,20.115c17.266-5.146,38.574-10.655,61.35-7.347
		c18.369-14.329,53.636-5.511,77.146,1.469c5.144,1.469,12.491,5.51,16.165,5.143c3.311,0,9.187-4.775,12.857-6.246
		c16.532-7.348,37.838-15.061,61.352-11.021c4.409,0.736,8.448,2.94,13.227,3.673c3.307,0.368,6.979-0.733,10.654-0.733
		C405.047,2.113,450.602,16.808,497.625,24.155z M344.431,22.686c-5.51,0.736-9.549,6.614-13.223,8.817c0.365,0,0.365,0,0.365-0.366
		c0.733-2.94,1.837-5.51,2.203-8.818c-29.393-10.285-58.044,4.777-78.984,16.166c-16.897,9.184-31.96,20.205-42.245,30.858
		c3.674-6.614,7.715-12.857,12.49-19.104c4.409-6.244,9.551-11.754,13.593-17.265c-8.817-2.205-17.635-4.777-26.451-6.614
		c-12.489-2.57-30.125-6.979-40.41-1.469c-2.938,1.837-5.511,5.878-8.449,6.246c-2.204,0.366-6.246-1.471-9.185-1.837
		c-10.654-1.103-20.572-0.367-30.492,1.837c-9.184,1.837-28.287,5.143-30.859,13.592c-1.469,5.51,1.837,11.021,1.469,16.164
		c-0.734,5.511-5.878,12.492-8.449,16.899c-3.306,5.144-6.614,9.918-11.756,12.49c-3.306-16.531,0.368-30.859,2.94-44.818
		c1.837-8.451,5.143-17.267,2.203-26.083c-8.449-1.102-15.429,5.511-23.879,8.816c-15.796,6.246-33.063,12.125-35.266,30.125
		c-1.103,10.286,2.57,16.532,5.143,23.878c5.878,15.43,13.226,28.655,21.674,40.409c-2.205,4.408-7.715,5.511-8.449,11.392
		c2.57,3.674,7.713,4.039,12.858,4.039c14.695,0,26.817-7.349,37.838-13.595c23.879-13.59,40.043-34.163,56.942-53.633
		c2.938-3.306,5.51-7.715,9.184-9.552c3.674,17.266-3.674,26.819-8.816,41.146c-1.837,5.51-8.451,22.775-5.143,30.857
		c3.306,8.817,32.328,9.186,40.042,3.674c4.041-2.938,5.511-9.549,7.348-13.595c2.57-5.141,5.143-9.92,6.979-14.692
		c0,19.471,14.326,24.979,30.125,29.022c33.062,8.813,66.125-6.981,84.125-17.633c-2.202,14.324,3.308,15.795,14.691,17.998
		c29.023,5.881,58.413-0.736,81.927-6.611c21.675-5.145,38.939-8.817,42.246-30.489c-3.307-2.938-12.125-2.57-18.002-1.838
		c-17.633,2.572-34.533,11.387-57.678,9.551c-4.408-0.365-13.593-1.838-13.959-4.408c-1.103-4.039,6.247-6.979,12.492-8.078
		c17.633-2.941,42.61,0,56.938-5.146c6.612-2.574,15.062-9.919,13.96-18c-0.732-5.51-7.717-8.45-14.692-8.816
		c-19.472-1.104-33.063,9.918-53.271,6.244c2.572-3.306,2.938-8.449,6.246-11.021c14.694-0.367,29.021,2.572,43.349,1.837
		c19.473-1.101,30.49-9.552,39.678-20.205c1.102-1.101,3.308-2.57,2.569-4.407C432.233,31.136,385.943,17.543,344.431,22.686z"/>
</g>
</svg>
