<?xml version="1.0" encoding="utf-8"?>
<!-- Generator: Adobe Illustrator 19.0.0, SVG Export Plug-In . SVG Version: 6.00 Build 0)  -->
<svg version="1.1" id="iconmonstr" xmlns="http://www.w3.org/2000/svg" xmlns:xlink="http://www.w3.org/1999/xlink" x="0px" y="0px"
	 width="24px" height="12.2px" viewBox="0 0 24 12.2" style="enable-background:new 0 0 24 12.2;" xml:space="preserve">
<style type="text/css">
	.st0{fill:#127F7F;}
</style>
<path id="user-29" class="st0" d="M18,12.2H6c0-0.2,0-0.4,0-0.6c0-1.3,0.1-2,1.6-2.3c1.7-0.4,3.3-0.7,2.5-2.2
	C7.8,2.7,9.5,0.2,12,0.2c2.5,0,4.2,2.4,1.9,6.8c-0.8,1.5,0.8,1.8,2.5,2.2c1.5,0.3,1.6,1.1,1.6,2.3C18,11.8,18,12,18,12.2z M22.8,10
	c-1.3-0.3-2.5-0.6-1.9-1.7c1.8-3.3,0.5-5.1-1.4-5.1c-1.3,0-2.2,0.8-2.2,2.3c0,3.9,2.3,1.8,2.2,6.7H24c0-0.2,0-0.3,0-0.5
	C24,10.8,23.9,10.2,22.8,10z M0,12.2h4.5c0-4.9,2.2-2.8,2.2-6.7c0-1.5-1-2.3-2.2-2.3C2.6,3.2,1.3,5,3.1,8.3C3.7,9.4,2.5,9.7,1.2,10
	C0.1,10.2,0,10.8,0,11.7C0,11.9,0,12,0,12.2z"/>
</svg>
